<?xml version="1.0" encoding="UTF-8"?><svg id="FINAL_SHEET_-_English_French" xmlns="http://www.w3.org/2000/svg" viewBox="0 0 253.86 240.96"><defs><style>.cls-1{fill:#3c3c3b;}.cls-2{fill:#e84237;}.cls-3{fill:#009a44;}.cls-4{fill:#20345f;}.cls-5{fill:#232f5d;}.cls-6{fill:#55b364;}.cls-7{fill:#c91430;}.cls-8{fill:#f08119;}</style></defs><path class="cls-1" d="M29.06,210.54h-3.77l-.7-16.8-3.07,16.8h-3.59l4.04-20.1h5.67l.59,14.08,6.59-14.08h5.73l-4.05,20.1h-3.62l3.81-16.67-7.63,16.67Z"/><path class="cls-1" d="M41.11,210.54l4.03-20.1h14.33l-.67,3.36h-10.35l-.92,4.57h10.01l-.67,3.36h-10.01l-1.21,5.46h11.25l-.69,3.36h-15.1Z"/><path class="cls-1" d="M63.85,210.54h-3.98l4.05-20.1h8.58c1.48,0,2.63.16,3.45.47.82.32,1.49.89,1.99,1.73.5.84.76,1.86.76,3.06,0,1.71-.49,3.12-1.48,4.23s-2.47,1.8-4.47,2.06c.51.48.99,1.1,1.44,1.88.89,1.57,1.88,3.79,2.97,6.66h-4.27c-.34-1.13-1.02-2.9-2.02-5.31-.54-1.3-1.12-2.17-1.74-2.62-.38-.26-1.04-.4-1.98-.4h-1.62l-1.67,8.32ZM66.13,199.21h2.11c2.13,0,3.55-.13,4.25-.4.7-.27,1.25-.68,1.64-1.25.4-.57.59-1.16.59-1.78,0-.73-.29-1.28-.86-1.65-.35-.22-1.11-.33-2.28-.33h-4.38l-1.08,5.4Z"/><path class="cls-1" d="M79.79,210.54l4.05-20.1h3.97l-4.03,20.1h-3.98Z"/><path class="cls-1" d="M88.21,210.54l4.05-20.1h5.21c1.45,0,2.38.02,2.78.07.8.08,1.51.25,2.14.51.63.26,1.2.62,1.71,1.08.51.46.96,1.02,1.33,1.67.37.65.66,1.4.86,2.24.2.84.3,1.77.3,2.78,0,2.17-.4,4.09-1.19,5.77-.79,1.68-1.79,3.01-3,4-.92.77-2.11,1.33-3.57,1.7-.83.2-2.1.3-3.81.3h-6.82ZM92.84,207.31h2.02c1.46,0,2.52-.09,3.17-.28.66-.19,1.25-.54,1.8-1.05.78-.74,1.44-1.73,1.98-2.96s.8-2.69.8-4.36c0-1.43-.22-2.5-.67-3.21-.44-.72-.99-1.2-1.64-1.43-.46-.17-1.27-.25-2.44-.25h-2.31l-2.72,13.55Z"/><path class="cls-1" d="M108.14,210.54l4.05-20.1h3.97l-4.03,20.1h-3.98Z"/><path class="cls-1" d="M129.15,206.1h-7.66l-2.32,4.44h-4.09l10.93-20.1h4.42l3.14,20.1h-3.77l-.65-4.44ZM128.66,202.76l-1.12-8.09-4.67,8.09h5.79Z"/><path class="cls-1" d="M151.17,210.54h-3.71l-5.22-13.5-2.71,13.5h-3.71l4.03-20.1h3.72l5.23,13.45,2.7-13.45h3.69l-4.03,20.1Z"/><path class="cls-1" d="M172.79,210.54h-4.25l-3.47-20.1h3.97l2.45,15.21,8-15.21h3.94l-10.65,20.1Z"/><path class="cls-1" d="M181.81,210.54l4.03-20.1h14.33l-.67,3.36h-10.35l-.92,4.57h10.01l-.67,3.36h-10.01l-1.21,5.46h11.25l-.69,3.36h-15.1Z"/><path class="cls-1" d="M204.55,210.54h-3.98l4.05-20.1h8.58c1.48,0,2.63.16,3.45.47.82.32,1.49.89,1.99,1.73.5.84.76,1.86.76,3.06,0,1.71-.49,3.12-1.48,4.23s-2.47,1.8-4.47,2.06c.51.48.99,1.1,1.44,1.88.89,1.57,1.88,3.79,2.97,6.66h-4.27c-.34-1.13-1.02-2.9-2.02-5.31-.54-1.3-1.12-2.17-1.74-2.62-.38-.26-1.04-.4-1.98-.4h-1.62l-1.67,8.32ZM206.84,199.21h2.11c2.13,0,3.55-.13,4.25-.4.7-.27,1.25-.68,1.64-1.25.4-.57.59-1.16.59-1.78,0-.73-.29-1.28-.86-1.65-.35-.22-1.11-.33-2.28-.33h-4.38l-1.08,5.4Z"/><path class="cls-1" d="M228.59,210.54h-3.98l3.38-16.74h-5.67l.67-3.36h15.23l-.67,3.36h-5.59l-3.36,16.74Z"/><path class="cls-1" d="M17.74,225.77l1.8-8.59h1.14l-1.79,8.59h-1.15Z"/><path class="cls-1" d="M25.32,225.77l1.8-8.59h1.11l1.45,3.22c.44.98.79,1.81,1.05,2.48.15.39.32.92.52,1.58.11-.72.24-1.47.4-2.24l1.05-5.05h1.12l-1.79,8.59h-1.14l-2.13-4.96c-.38-.88-.67-1.65-.88-2.31-.06.56-.17,1.24-.34,2.06l-1.09,5.22h-1.12Z"/><path class="cls-1" d="M38.29,225.77l1.79-8.59h5.58l-.21.98h-4.44l-.57,2.74h4.52l-.21.98h-4.52l-.81,3.9h-1.15Z"/><path class="cls-1" d="M50.51,222.17c0-1.53.44-2.77,1.33-3.72s1.96-1.42,3.22-1.42c1.07,0,1.94.35,2.62,1.05s1.01,1.63,1.01,2.8c0,.84-.17,1.61-.51,2.33-.25.54-.57,1-.96,1.39s-.8.69-1.24.9c-.59.28-1.21.42-1.86.42s-1.31-.16-1.88-.49-.99-.79-1.28-1.37-.44-1.21-.44-1.88ZM51.65,222.23c0,.5.1.97.31,1.39s.52.75.93.99.85.36,1.31.36.86-.1,1.26-.31.75-.5,1.07-.87.56-.83.74-1.38.27-1.08.27-1.61c0-.86-.24-1.54-.72-2.04s-1.07-.76-1.77-.76c-.9,0-1.69.38-2.38,1.15s-1.03,1.8-1.03,3.09Z"/><path class="cls-1" d="M63.66,225.77l1.8-8.59h3.6c.71,0,1.25.06,1.62.18s.66.34.86.67.31.74.31,1.24c0,.7-.23,1.28-.69,1.74s-1.2.76-2.21.9c.31.23.55.46.71.68.36.5.65,1.03.87,1.56l.66,1.62h-1.28l-.62-1.6c-.22-.58-.48-1.08-.76-1.5-.2-.29-.39-.49-.6-.58s-.53-.14-.99-.14h-1.34l-.8,3.81h-1.15ZM65.8,221.02h1.59c.73,0,1.21,0,1.44-.03.43-.04.79-.14,1.07-.29s.49-.36.64-.62.23-.54.23-.83c0-.25-.06-.47-.17-.65s-.26-.31-.45-.38-.5-.1-.94-.1h-2.8l-.61,2.9Z"/><path class="cls-1" d="M76.63,225.77l1.79-8.59h1.41l.87,5.57c.11.73.19,1.43.22,2.1.24-.58.64-1.36,1.2-2.35l3.01-5.32h1.44l-1.79,8.59h-1.13l.9-4.18c.21-.96.5-2.05.89-3.25-.25.56-.55,1.16-.91,1.8l-3.2,5.62h-1.11l-.86-5.51c-.08-.5-.13-1.09-.17-1.76-.1.75-.19,1.35-.29,1.79l-1.14,5.48h-1.12Z"/><path class="cls-1" d="M90.21,225.77l4.87-8.59h1.35l1.42,8.59h-1.11l-.42-2.47h-3.47l-1.38,2.47h-1.26ZM93.34,222.41h2.84l-.33-2.16c-.13-.86-.21-1.57-.24-2.14-.2.49-.48,1.08-.86,1.75l-1.41,2.54Z"/><path class="cls-1" d="M104.63,225.77l1.59-7.61h-2.82l.21-.98h6.76l-.21.98h-2.79l-1.59,7.61h-1.15Z"/><path class="cls-1" d="M114.26,225.77l1.8-8.59h1.14l-1.79,8.59h-1.15Z"/><path class="cls-1" d="M122.35,222.17c0-1.53.44-2.77,1.33-3.72s1.96-1.42,3.22-1.42c1.07,0,1.94.35,2.62,1.05s1.01,1.63,1.01,2.8c0,.84-.17,1.61-.51,2.33-.25.54-.57,1-.96,1.39s-.8.69-1.24.9c-.59.28-1.21.42-1.86.42s-1.31-.16-1.88-.49-.99-.79-1.28-1.37-.44-1.21-.44-1.88ZM123.48,222.23c0,.5.1.97.31,1.39s.52.75.93.99.85.36,1.31.36.86-.1,1.26-.31.75-.5,1.07-.87.56-.83.74-1.38.27-1.08.27-1.61c0-.86-.24-1.54-.72-2.04s-1.07-.76-1.77-.76c-.9,0-1.69.38-2.38,1.15s-1.03,1.8-1.03,3.09Z"/><path class="cls-1" d="M135.52,225.77l1.8-8.59h1.11l1.45,3.22c.44.98.79,1.81,1.05,2.48.15.39.32.92.52,1.58.11-.72.24-1.47.4-2.24l1.05-5.05h1.12l-1.79,8.59h-1.14l-2.13-4.96c-.38-.88-.67-1.65-.88-2.31-.06.56-.17,1.24-.34,2.06l-1.09,5.22h-1.12Z"/><path class="cls-1" d="M155.29,225.77l1.79-8.59h5.58l-.21.98h-4.44l-.57,2.74h4.52l-.21.98h-4.52l-.81,3.9h-1.15Z"/><path class="cls-1" d="M165.29,225.77l4.87-8.59h1.35l1.42,8.59h-1.11l-.42-2.47h-3.47l-1.38,2.47h-1.26ZM168.42,222.41h2.84l-.33-2.16c-.13-.86-.21-1.57-.24-2.14-.2.49-.48,1.08-.86,1.75l-1.41,2.54Z"/><path class="cls-1" d="M185.12,222.74l1.14.16c-.36.99-.88,1.74-1.57,2.25s-1.46.76-2.31.76c-1.04,0-1.87-.32-2.48-.96s-.92-1.55-.92-2.74c0-1.55.46-2.83,1.39-3.84.83-.9,1.86-1.35,3.09-1.35.91,0,1.65.24,2.21.73s.89,1.14.98,1.97l-1.07.1c-.11-.62-.35-1.08-.7-1.39s-.81-.46-1.37-.46c-1.05,0-1.9.47-2.55,1.4-.56.8-.84,1.76-.84,2.87,0,.88.22,1.56.65,2.02s1,.7,1.69.7c.59,0,1.13-.19,1.61-.58s.83-.93,1.05-1.64Z"/><path class="cls-1" d="M193.62,225.77l1.59-7.61h-2.82l.21-.98h6.76l-.21.98h-2.79l-1.59,7.61h-1.15Z"/><path class="cls-1" d="M203.44,222.17c0-1.53.44-2.77,1.33-3.72s1.96-1.42,3.22-1.42c1.07,0,1.94.35,2.62,1.05s1.01,1.63,1.01,2.8c0,.84-.17,1.61-.51,2.33-.25.54-.57,1-.96,1.39s-.8.69-1.24.9c-.59.28-1.21.42-1.86.42s-1.31-.16-1.88-.49-.99-.79-1.28-1.37-.44-1.21-.44-1.88ZM204.58,222.23c0,.5.1.97.31,1.39s.52.75.93.99.85.36,1.31.36.86-.1,1.26-.31.75-.5,1.07-.87.56-.83.74-1.38.27-1.08.27-1.61c0-.86-.24-1.54-.72-2.04s-1.07-.76-1.77-.76c-.9,0-1.69.38-2.38,1.15s-1.03,1.8-1.03,3.09Z"/><path class="cls-1" d="M216.59,225.77l1.8-8.59h3.6c.71,0,1.25.06,1.62.18s.66.34.86.67.31.74.31,1.24c0,.7-.23,1.28-.69,1.74s-1.2.76-2.21.9c.31.23.55.46.71.68.36.5.65,1.03.87,1.56l.66,1.62h-1.28l-.62-1.6c-.22-.58-.48-1.08-.76-1.5-.2-.29-.39-.49-.6-.58s-.53-.14-.99-.14h-1.34l-.8,3.81h-1.15ZM218.73,221.02h1.59c.73,0,1.21,0,1.44-.03.43-.04.79-.14,1.07-.29s.49-.36.64-.62.23-.54.23-.83c0-.25-.06-.47-.17-.65s-.26-.31-.45-.38-.5-.1-.94-.1h-2.8l-.61,2.9Z"/><path class="cls-1" d="M231.94,225.77l.69-3.32-2.64-5.27h1.23l1.27,2.51c.28.55.55,1.13.81,1.76.29-.53.68-1.11,1.18-1.74l2.02-2.53h1.37l-4.1,5.36-.67,3.23h-1.15Z"/><path class="cls-6" d="M88.08,87.23l104.88,16.56H32.88c-9.15,0-16.56-7.41-16.56-16.56h0s71.76,0,71.76,0Z"/><path class="cls-6" d="M88.08,131.39H16.32s0,0,0,0c0,9.15,7.41,16.56,16.56,16.56h204.24s-149.04-16.56-149.04-16.56Z"/><path class="cls-6" d="M88.08,109.31l126.96,16.56H32.88c-9.15,0-16.56-7.41-16.56-16.56h0s71.76,0,71.76,0Z"/><path class="cls-6" d="M88.08,65.15l82.8,16.56H32.88c-9.15,0-16.56-7.41-16.56-16.56h0s71.76,0,71.76,0Z"/><path class="cls-6" d="M88.08,43.07l60.72,16.56H32.88c-9.15,0-16.56-7.41-16.56-16.56h0s71.76,0,71.76,0Z"/><path class="cls-6" d="M88.08,20.99l38.64,16.56H32.88c-9.15,0-16.56-7.41-16.56-16.56h0s71.76,0,71.76,0Z"/><polygon class="cls-6" points="192.96 103.79 192.96 16.56 179.19 16.56 192.96 103.79"/><polygon class="cls-6" points="237.12 147.95 237.12 16.56 222.52 16.56 237.12 147.95"/><polygon class="cls-6" points="215.04 125.87 215.04 16.56 200.78 16.56 215.04 125.87"/><polygon class="cls-6" points="170.88 81.71 170.88 16.56 157.85 16.56 170.88 81.71"/><polygon class="cls-6" points="148.8 59.63 148.8 16.56 137.05 16.56 148.8 59.63"/><polygon class="cls-6" points="126.72 37.55 126.72 16.56 117.72 16.56 126.72 37.55"/><polygon class="cls-5" points="17.43 180.56 35.42 162.57 17.43 162.57 17.43 180.56"/><polygon class="cls-5" points="48.96 180.56 69.98 180.56 69.98 162.57 66.95 162.57 48.96 180.56"/><rect class="cls-3" x="91" y="162.57" width="21.02" height="17.99"/><rect class="cls-8" x="133.04" y="162.57" width="21.02" height="17.99"/><rect class="cls-4" x="175.07" y="162.57" width="21.02" height="17.99"/><rect class="cls-2" x="217.16" y="162.57" width="21.02" height="17.99"/><polygon class="cls-7" points="26.54 180.56 39.76 180.56 57.75 162.57 44.53 162.57 26.54 180.56"/></svg>