<?xml version="1.0" encoding="UTF-8"?><svg id="FINAL_SHEET_-_English" xmlns="http://www.w3.org/2000/svg" viewBox="0 0 253.86 240.96"><defs><style>.cls-1{fill:#3c3c3b;}.cls-2{fill:#e84237;}.cls-3{fill:#009a44;}.cls-4{fill:#20345f;}.cls-5{fill:#232f5d;}.cls-6{fill:#55b364;}.cls-7{fill:#c91430;}.cls-8{fill:#f08119;}</style></defs><path class="cls-1" d="M24.65,193.62c1.03-.67,2.16-1.02,3.35-1.02,1.12,0,2.05.31,2.75.91.71.61,1.18,1.51,1.41,2.67l.07.34,3.04-.34-.07-.39c-.24-1.31-.64-2.39-1.19-3.21-.56-.84-1.38-1.51-2.42-2.01-1.04-.49-2.22-.74-3.51-.74-1.79,0-3.45.45-4.91,1.34-1.47.89-2.7,2.28-3.66,4.13-.95,1.84-1.44,3.91-1.44,6.15s.56,4.03,1.67,5.44c1.33,1.69,3.35,2.54,6.01,2.54,1.23,0,2.5-.21,3.76-.62,1.26-.41,2.41-.94,3.39-1.59l.13-.09,1.62-8.03h-8.45l-.57,2.82h5.33l-.67,3.31c-1.63.95-3.17,1.43-4.58,1.43s-2.52-.42-3.33-1.29c-.8-.86-1.2-2.17-1.2-3.9s.32-3.39.95-4.78c.62-1.37,1.47-2.41,2.5-3.09Z"/><path class="cls-1" d="M53.99,194.96c0-1.13-.23-2.08-.7-2.83-.47-.77-1.13-1.3-1.96-1.58-.8-.27-1.92-.4-3.42-.4h-7.66l-3.82,18.99h3.11l1.63-8.1h2.42c1.09,0,1.61.14,1.86.26.35.16.71.53,1.07,1.09.57.87,1.08,1.92,1.52,3.11l1.35,3.64h3.43l-1.54-3.95c-.46-1.17-1.06-2.31-1.81-3.4-.23-.33-.53-.66-.89-.99,1.75-.35,3.07-.98,3.93-1.88,1-1.05,1.5-2.38,1.5-3.95ZM49.41,197.67c-.52.3-1.2.49-2.03.58-.44.04-1.41.06-2.9.06h-2.78l1.09-5.41h5.41c1.06,0,1.55.1,1.78.19.29.11.53.32.72.64.2.33.29.74.29,1.2,0,.56-.14,1.09-.42,1.58h0c-.28.49-.67.88-1.17,1.17Z"/><polygon class="cls-1" points="71.35 192.97 71.92 190.14 58.5 190.14 54.67 209.13 68.83 209.13 69.4 206.31 58.35 206.31 59.47 200.72 69.52 200.72 70.09 197.89 60.04 197.89 61.04 192.97 71.35 192.97"/><polygon class="cls-1" points="88.3 192.97 88.87 190.14 75.45 190.14 71.63 209.13 85.78 209.13 86.35 206.31 75.31 206.31 76.42 200.72 86.47 200.72 87.04 197.89 77 197.89 77.99 192.97 88.3 192.97"/><path class="cls-1" d="M101.68,201.17h0c-.21,1.05-.4,2.09-.56,3.1-.21-.69-.41-1.28-.58-1.76-.53-1.43-1.25-3.21-2.15-5.29l-3.05-7.07h-2.83l-3.82,18.99h3.05l2.29-11.39c.2-1,.36-1.92.49-2.75.36,1.03.8,2.16,1.3,3.37l4.45,10.77h2.88l3.81-18.99h-3.05l-2.21,11.03Z"/><path class="cls-1" d="M131.88,190.14l-6.25,11.49h0c-.75,1.39-1.37,2.59-1.84,3.61-.08-.96-.2-1.96-.35-2.96l-1.82-12.14h-3.51l-3.81,18.99h3.05l2.39-11.93c.04-.19.08-.4.12-.62.02.19.05.37.08.54l1.81,12.01h2.81l6.64-12.13s0-.01,0-.02c-.25.99-.47,1.93-.66,2.82l-1.92,9.32h3.08l3.81-18.99h-3.61Z"/><polygon class="cls-1" points="152 192.97 152.57 190.14 139.15 190.14 135.33 209.13 149.48 209.13 150.05 206.31 139.01 206.31 140.12 200.72 150.17 200.72 150.74 197.89 140.7 197.89 141.69 192.97 152 192.97"/><path class="cls-1" d="M169.9,194.96c0-1.13-.23-2.08-.7-2.83-.47-.77-1.13-1.3-1.96-1.58-.8-.27-1.92-.4-3.42-.4h-7.66l-3.82,18.99h3.11l1.63-8.1h2.42c1.09,0,1.61.14,1.86.26.35.16.71.53,1.07,1.09.57.87,1.08,1.92,1.52,3.11l1.35,3.64h3.43l-1.54-3.95c-.46-1.17-1.06-2.31-1.81-3.4-.23-.33-.53-.66-.89-.99,1.75-.35,3.07-.98,3.93-1.88,1-1.05,1.5-2.38,1.5-3.95ZM165.32,197.67c-.52.3-1.2.49-2.03.58-.44.04-1.41.06-2.9.06h-2.78l1.09-5.41h5.41c1.06,0,1.55.1,1.78.19.29.11.53.32.72.64.2.33.29.74.29,1.2,0,.56-.14,1.09-.42,1.58h0c-.28.49-.67.88-1.17,1.17Z"/><polygon class="cls-1" points="170.89 209.13 174 209.13 177.81 190.14 174.71 190.14 170.89 209.13"/><path class="cls-1" d="M193.02,191.91c-.72-.7-1.6-1.19-2.61-1.47-.71-.2-1.7-.3-3.01-.3h-5.6l-3.81,18.99h6.77c1.16,0,2.16-.1,2.97-.3,1.07-.26,2.01-.66,2.8-1.21.78-.54,1.54-1.29,2.25-2.24.71-.94,1.29-2.05,1.73-3.29.44-1.24.66-2.63.66-4.14,0-1.26-.18-2.42-.53-3.44-.36-1.04-.91-1.92-1.62-2.62ZM187.15,192.97c1.15,0,2,.09,2.53.27.69.23,1.24.69,1.69,1.42.46.73.69,1.81.69,3.21,0,1.28-.18,2.43-.52,3.43h0c-.35,1-.82,1.9-1.4,2.68-.43.58-.92,1.05-1.45,1.4-.39.26-.87.47-1.44.61-.94.23-2.03.35-3.25.35h-2.32l2.68-13.35h2.79Z"/><polygon class="cls-1" points="200.44 190.14 196.61 209.13 199.72 209.13 203.53 190.14 200.44 190.14"/><path class="cls-1" d="M212.32,190.14l-10.35,18.99h3.43l2.81-5.25h6.55l.85,5.25h3.03l-3.01-18.99h-3.31ZM213.36,194.07c.09.89.21,1.91.37,3.03l.62,4.15h-4.74l2.59-4.85c.45-.84.83-1.62,1.16-2.33Z"/><path class="cls-1" d="M235.99,190.14l-2.21,11.03c-.21,1.05-.4,2.09-.56,3.1-.21-.69-.41-1.28-.58-1.76-.53-1.43-1.25-3.21-2.15-5.29l-3.05-7.07h-2.83l-3.82,18.99h3.05l2.29-11.39c.2-1,.36-1.92.49-2.75.36,1.03.8,2.16,1.3,3.37l4.45,10.77h2.88l3.81-18.99h-3.05Z"/><path class="cls-1" d="M17.95,224.42l1.8-8.59h1.14l-1.79,8.59h-1.15Z"/><path class="cls-1" d="M25.53,224.42l1.8-8.59h1.11l1.45,3.22c.44.98.79,1.81,1.05,2.48.15.39.32.92.52,1.58.11-.72.24-1.47.4-2.24l1.05-5.05h1.12l-1.79,8.59h-1.14l-2.13-4.96c-.38-.88-.67-1.65-.88-2.31-.06.56-.17,1.24-.34,2.06l-1.09,5.22h-1.12Z"/><path class="cls-1" d="M38.5,224.42l1.79-8.59h5.58l-.21.98h-4.44l-.57,2.74h4.52l-.21.98h-4.52l-.81,3.9h-1.15Z"/><path class="cls-1" d="M50.73,220.83c0-1.53.44-2.77,1.33-3.72s1.96-1.42,3.22-1.42c1.07,0,1.94.35,2.62,1.05s1.01,1.63,1.01,2.8c0,.84-.17,1.61-.51,2.33-.25.54-.57,1-.96,1.39s-.8.69-1.24.9c-.59.28-1.21.42-1.86.42s-1.31-.16-1.88-.49-.99-.79-1.28-1.37-.44-1.21-.44-1.88ZM51.86,220.88c0,.5.1.97.31,1.39s.52.75.93.99.85.36,1.31.36.86-.1,1.26-.31.75-.5,1.07-.87.56-.83.74-1.38.27-1.08.27-1.61c0-.86-.24-1.54-.72-2.04s-1.07-.76-1.77-.76c-.9,0-1.69.38-2.38,1.15s-1.03,1.8-1.03,3.09Z"/><path class="cls-1" d="M63.87,224.42l1.8-8.59h3.6c.71,0,1.25.06,1.62.18s.66.34.86.67.31.74.31,1.24c0,.7-.23,1.28-.69,1.74s-1.2.76-2.21.9c.31.23.55.46.71.68.36.5.65,1.03.87,1.56l.66,1.62h-1.28l-.62-1.6c-.22-.58-.48-1.08-.76-1.5-.2-.29-.39-.49-.6-.58s-.53-.14-.99-.14h-1.34l-.8,3.81h-1.15ZM66.01,219.68h1.59c.73,0,1.21,0,1.44-.03.43-.04.79-.14,1.07-.29s.49-.36.64-.62.23-.54.23-.83c0-.25-.06-.47-.17-.65s-.26-.31-.45-.38-.5-.1-.94-.1h-2.8l-.61,2.9Z"/><path class="cls-1" d="M76.84,224.42l1.79-8.59h1.41l.87,5.57c.11.73.19,1.43.22,2.1.24-.58.64-1.36,1.2-2.35l3.01-5.32h1.44l-1.79,8.59h-1.13l.9-4.18c.21-.96.5-2.05.89-3.25-.25.56-.55,1.16-.91,1.8l-3.2,5.62h-1.11l-.86-5.51c-.08-.5-.13-1.09-.17-1.76-.1.75-.19,1.35-.29,1.79l-1.14,5.48h-1.12Z"/><path class="cls-1" d="M90.42,224.42l4.87-8.59h1.35l1.42,8.59h-1.11l-.42-2.47h-3.47l-1.38,2.47h-1.26ZM93.55,221.07h2.84l-.33-2.16c-.13-.86-.21-1.57-.24-2.14-.2.49-.48,1.08-.86,1.75l-1.41,2.54Z"/><path class="cls-1" d="M104.84,224.42l1.59-7.61h-2.82l.21-.98h6.76l-.21.98h-2.79l-1.59,7.61h-1.15Z"/><path class="cls-1" d="M114.47,224.42l1.8-8.59h1.14l-1.79,8.59h-1.15Z"/><path class="cls-1" d="M122.56,220.83c0-1.53.44-2.77,1.33-3.72s1.96-1.42,3.22-1.42c1.07,0,1.94.35,2.62,1.05s1.01,1.63,1.01,2.8c0,.84-.17,1.61-.51,2.33-.25.54-.57,1-.96,1.39s-.8.69-1.24.9c-.59.28-1.21.42-1.86.42s-1.31-.16-1.88-.49-.99-.79-1.28-1.37-.44-1.21-.44-1.88ZM123.69,220.88c0,.5.1.97.31,1.39s.52.75.93.99.85.36,1.31.36.86-.1,1.26-.31.75-.5,1.07-.87.56-.83.74-1.38.27-1.08.27-1.61c0-.86-.24-1.54-.72-2.04s-1.07-.76-1.77-.76c-.9,0-1.69.38-2.38,1.15s-1.03,1.8-1.03,3.09Z"/><path class="cls-1" d="M135.73,224.42l1.8-8.59h1.11l1.45,3.22c.44.98.79,1.81,1.05,2.48.15.39.32.92.52,1.58.11-.72.24-1.47.4-2.24l1.05-5.05h1.12l-1.79,8.59h-1.14l-2.13-4.96c-.38-.88-.67-1.65-.88-2.31-.06.56-.17,1.24-.34,2.06l-1.09,5.22h-1.12Z"/><path class="cls-1" d="M155.51,224.42l1.79-8.59h5.58l-.21.98h-4.44l-.57,2.74h4.52l-.21.98h-4.52l-.81,3.9h-1.15Z"/><path class="cls-1" d="M165.5,224.42l4.87-8.59h1.35l1.42,8.59h-1.11l-.42-2.47h-3.47l-1.38,2.47h-1.26ZM168.63,221.07h2.84l-.33-2.16c-.13-.86-.21-1.57-.24-2.14-.2.49-.48,1.08-.86,1.75l-1.41,2.54Z"/><path class="cls-1" d="M185.33,221.4l1.14.16c-.36.99-.88,1.74-1.57,2.25s-1.46.76-2.31.76c-1.04,0-1.87-.32-2.48-.96s-.92-1.55-.92-2.74c0-1.55.46-2.83,1.39-3.84.83-.9,1.86-1.35,3.09-1.35.91,0,1.65.24,2.21.73s.89,1.14.98,1.97l-1.07.1c-.11-.62-.35-1.08-.7-1.39s-.81-.46-1.37-.46c-1.05,0-1.9.47-2.55,1.4-.56.8-.84,1.76-.84,2.87,0,.88.22,1.56.65,2.02s1,.7,1.69.7c.59,0,1.13-.19,1.61-.58s.83-.93,1.05-1.64Z"/><path class="cls-1" d="M193.83,224.42l1.59-7.61h-2.82l.21-.98h6.76l-.21.98h-2.79l-1.59,7.61h-1.15Z"/><path class="cls-1" d="M203.66,220.83c0-1.53.44-2.77,1.33-3.72s1.96-1.42,3.22-1.42c1.07,0,1.94.35,2.62,1.05s1.01,1.63,1.01,2.8c0,.84-.17,1.61-.51,2.33-.25.54-.57,1-.96,1.39s-.8.69-1.24.9c-.59.28-1.21.42-1.86.42s-1.31-.16-1.88-.49-.99-.79-1.28-1.37-.44-1.21-.44-1.88ZM204.79,220.88c0,.5.1.97.31,1.39s.52.75.93.99.85.36,1.31.36.86-.1,1.26-.31.75-.5,1.07-.87.56-.83.74-1.38.27-1.08.27-1.61c0-.86-.24-1.54-.72-2.04s-1.07-.76-1.77-.76c-.9,0-1.69.38-2.38,1.15s-1.03,1.8-1.03,3.09Z"/><path class="cls-1" d="M216.8,224.42l1.8-8.59h3.6c.71,0,1.25.06,1.62.18s.66.34.86.67.31.74.31,1.24c0,.7-.23,1.28-.69,1.74s-1.2.76-2.21.9c.31.23.55.46.71.68.36.5.65,1.03.87,1.56l.66,1.62h-1.28l-.62-1.6c-.22-.58-.48-1.08-.76-1.5-.2-.29-.39-.49-.6-.58s-.53-.14-.99-.14h-1.34l-.8,3.81h-1.15ZM218.94,219.68h1.59c.73,0,1.21,0,1.44-.03.43-.04.79-.14,1.07-.29s.49-.36.64-.62.23-.54.23-.83c0-.25-.06-.47-.17-.65s-.26-.31-.45-.38-.5-.1-.94-.1h-2.8l-.61,2.9Z"/><path class="cls-1" d="M232.15,224.42l.69-3.32-2.64-5.27h1.23l1.27,2.51c.28.55.55,1.13.81,1.76.29-.53.68-1.11,1.18-1.74l2.02-2.53h1.37l-4.1,5.36-.67,3.23h-1.15Z"/><path class="cls-6" d="M88.29,87.23l104.88,16.56H33.09c-9.15,0-16.56-7.41-16.56-16.56h0s71.76,0,71.76,0Z"/><path class="cls-6" d="M88.29,131.39H16.53s0,0,0,0c0,9.15,7.41,16.56,16.56,16.56h204.24s-149.04-16.56-149.04-16.56Z"/><path class="cls-6" d="M88.29,109.31l126.96,16.56H33.09c-9.15,0-16.56-7.41-16.56-16.56h0s71.76,0,71.76,0Z"/><path class="cls-6" d="M88.29,65.15l82.8,16.56H33.09c-9.15,0-16.56-7.41-16.56-16.56h0s71.76,0,71.76,0Z"/><path class="cls-6" d="M88.29,43.07l60.72,16.56H33.09c-9.15,0-16.56-7.41-16.56-16.56h0s71.76,0,71.76,0Z"/><path class="cls-6" d="M88.29,20.99l38.64,16.56H33.09c-9.15,0-16.56-7.41-16.56-16.56h0s71.76,0,71.76,0Z"/><polygon class="cls-6" points="193.17 103.79 193.17 16.56 179.4 16.56 193.17 103.79"/><polygon class="cls-6" points="237.33 147.95 237.33 16.56 222.73 16.56 237.33 147.95"/><polygon class="cls-6" points="215.25 125.87 215.25 16.56 200.99 16.56 215.25 125.87"/><polygon class="cls-6" points="171.09 81.71 171.09 16.56 158.06 16.56 171.09 81.71"/><polygon class="cls-6" points="149.01 59.63 149.01 16.56 137.26 16.56 149.01 59.63"/><polygon class="cls-6" points="126.93 37.55 126.93 16.56 117.93 16.56 126.93 37.55"/><polygon class="cls-5" points="17.64 180.56 35.63 162.57 17.64 162.57 17.64 180.56"/><polygon class="cls-5" points="49.17 180.56 70.19 180.56 70.19 162.57 67.16 162.57 49.17 180.56"/><rect class="cls-3" x="91.21" y="162.57" width="21.02" height="17.99"/><rect class="cls-8" x="133.25" y="162.57" width="21.02" height="17.99"/><rect class="cls-4" x="175.28" y="162.57" width="21.02" height="17.99"/><rect class="cls-2" x="217.38" y="162.57" width="21.02" height="17.99"/><polygon class="cls-7" points="26.75 180.56 39.97 180.56 57.96 162.57 44.74 162.57 26.75 180.56"/></svg>